
<svg width="714" height="714" viewBox="0 0 714 714" fill="none" xmlns="http://www.w3.org/2000/svg">
<g clip-path="url(#clip0_6_3)">
<path fill-rule="evenodd" clip-rule="evenodd" d="M264.629 558.421C283.704 560.465 301.576 545.538 329.202 509.871L97.9865 415.072C179.819 509.002 231.627 554.894 264.629 558.421Z" fill="#4F39F6"/>
<path d="M892.5 498C862.107 482.071 709.329 572.322 763.349 602.551C763.349 758 735.855 763.28 747.5 774.5C824.13 848.352 475.64 812.951 421.508 825.935C378.728 836.207 359.142 829.025 354.592 810.084C348.318 783.982 358.376 740.652 376.38 687.996C400.451 617.572 466.968 626.902 533.602 635.358C574.677 640.56 615.564 623.476 612.135 583.395C610.422 563.34 599.904 540.153 610.422 526.79C622.683 512.944 621.66 485.558 606.197 481.839C624.204 474.8 636.185 471.057 622.994 447.3C614.43 431.884 613.165 426.821 625.407 415.929C641.308 401.774 680.489 400.128 662.422 376.644C642.552 343.174 617.372 332.063 601.294 285.558C615.189 149.681 544.498 48.5729 405.727 67.2194C316.017 79.2689 -42.8765 262.331 107.446 381.176C151.224 415.768 288.799 463.769 346.103 480.31C374.852 488.621 382.842 447.246 357.763 439.983C303.791 424.405 170.656 377.683 133.483 348.309C37.1336 272.138 349.743 117.07 411.314 108.794C438.86 105.093 461.731 109.253 475.206 125.291C480.804 131.959 485.201 140.866 488.104 152.293C510.347 239.757 448.399 392.34 392.278 530.575C343.701 650.238 299.272 759.679 313.766 819.977C324.456 864.491 359.267 884.055 431.404 866.738C514.285 846.856 889.733 694.154 763.349 572.358C745.673 555.336 920.961 512.924 892.5 498Z" fill="#4F39F6"/>
</g>
<defs>
<clipPath id="clip0_6_3">
<rect width="714" height="714" fill="white"/>
</clipPath>
</defs>
</svg>
